<svg xmlns="http://www.w3.org/2000/svg" fill="none" viewBox="0 0 1440 326"><g clip-path="url(#a)"><path fill="#177dff" d="M1048.57 82.375l-5.69-.204-.12 9.471 5.69.204z"/><path fill="#4dd67b" d="M1077.04 147.919l-.45-6.467-9.46-1.147.45 6.467z"/><path fill="#177dff" d="M1382.52 271.437l9.22-3.511-2.46-10.027-9.22 3.511z"/><path fill="#f4dc73" d="M105.313 338.81l5.297-4.495-13.994-13.569-5.298 4.494zM315.904 99.609l3.306-7.172-13.619-6.678-3.306 7.172zm879.886 115.63l-1.49-4.959-8.87 2.126 1.49 4.959zm61.05 8.928l2.75-6.398-10.62-6.96-2.75 6.398z"/><path fill="#177dff" d="M313.525 49.753l-4.47-3.316-5.882 7.696 4.47 3.317zm361.892 63.684l-8.563-3.113-4.59 22.304 8.563 3.113zm493.393 51.116l-7.18-.881-.72 13.63 7.18.881zm-407.705-65.05l5.045-2.15-1.412-6.59-5.046 2.15z"/><path fill="#4dd67b" d="M1269.78 207.824l6.52-3.043-3.04-6.525-6.52 3.043zm102.46 31.58l8.74-1.054.4-11.441-8.74 1.053zM35.82 230.132l5.918-3.631-6.076-8.797-5.92 3.631z"/><path fill="#d64d5b" d="M46.496 57.274l4.974-3.072-11.026-14.765-4.974 3.072zM1204.41 264.172l-3.8-8.066-18.84 7.482 3.8 8.067z"/><path fill="#4dd67b" d="M851.853 101.738l1.8-7.395-19.831-7.226-1.801 7.395z"/><path fill="#177dff" d="M821.759 290.352l5.182-6.265-14.095-11.569-5.182 6.265z"/><path fill="#4dd67b" d="M1276.93 277.565l6.43-2.016-7.87-16.867-6.43 2.016zm11.53 42.463l-1.37-6.488-7.94-.139 1.37 6.488z"/><path fill="#f4dc73" d="M407.223 321.596l4.971-2.704-2.259-6.801-4.972 2.704zM292.077 200.288l-.154-5.206-12.611-2.12.154 5.206z"/><path fill="#177dff" d="M1342.85 280.018l-1.04-5.805-11.87 1.514 1.04 5.806z"/><path fill="#f4dc73" d="M119.537 202.441l-.46-9.439-15.666.837.459 9.439z"/><path fill="#4dd67b" d="M744.714 288.845l2.466-7.939-8.981-1.151-2.466 7.938z"/><path fill="#d64d5b" d="M1006.68 236.055l6.85-2.466-6.45-19.647-6.84 2.466z"/><path fill="#4dd67b" d="M306.136 211.203l5.953-4.878-9.237-12.46-5.953 4.878zm717.654 89.903l-5.79-7.813-13.9 4.888 5.79 7.814zM597.027 65.857l-4.267-8.127-10.692 4.42 4.267 8.127z"/><path fill="#d64d5b" d="M818.795 295.479l-5.125-2.366-2.504 10.173 5.125 2.366z"/><path fill="#177dff" d="M939.562 185.375l-4.969-1.134-1.252 7.016 4.969 1.134z"/><path fill="#4dd67b" d="M566.667 263.215l-4.975-9.414-10.646 4.235 4.975 9.415z"/><path fill="#177dff" d="M659.092 133.791l-4.026-3.315-3.033 3.813 4.025 3.315z"/><path fill="#4dd67b" d="M903.142 210.875l-2.789-3.64-8.573 7.029 2.789 3.639z"/><path fill="#177dff" d="M231.212 92.35l4.713-3.307-5.36-7.678-4.713 3.308zm965.148 147.443l-6.83-3.447-1.4 6.129 6.83 3.447z"/><path fill="#4dd67b" d="M767.602 215.481l2.341-7.872-17.456-2.197-2.342 7.872z"/><path fill="#d64d5b" d="M1234.77 213.07l.85-8.914-22.78-6.907-.85 8.914z"/><path fill="#177dff" d="M421.71 304.675l1.588-5.1-12.666-.458-1.588 5.1z"/><path fill="#d64d5b" d="M230.435 108.763l7.208-2.21-12.557-22.905-7.207 2.21z"/><path fill="#4dd67b" d="M748.347 198.645l8.66-1.211-.001-15.804-8.66 1.211z"/><path fill="#177dff" d="M441.487 236.876l2.282-3.133-9.934-8.625-2.282 3.133z"/><path fill="#f4dc73" d="M92.39 285l-6.226-4.403-4.168 7.878 6.225 4.402z"/><path fill="#d64d5b" d="M263.951 260.74l-5.448-2.75-2.918 11.467 5.448 2.75zM525.46 159.731l.3-5.732-7.196-.753-.3 5.732zM807.887 17.118l-6.599-5.34-5.995 7.405 6.598 5.34z"/><path fill="#4dd67b" d="M581.108 100.093l-2.09-8.64-16.767 2.121 2.09 8.64z"/><path fill="#d64d5b" d="M64.455 303.936l-3.483-7.537-12.574 5.536 3.483 7.537z"/><path fill="#f4dc73" d="M469.425 188.255l-4.196-2.243-3.887 6.571 4.195 2.243zM274.444 79.523l2.578-7.347-19.759-7.827-2.579 7.348z"/><path fill="#177dff" d="M106.698 45.185l-10.05-4.895-3.424 23.813L103.274 69z"/><path fill="#4dd67b" d="M625.689 242.803l4.249-3.471-4.338-5.849-4.25 3.471z"/><path fill="#f4dc73" d="M522.602 72l-.913-5.76h-15.84l.913 5.76zm372.031 245.899l-8.984-1.946-4.858 16.2 8.984 1.947zm-283.582-35.918L607 274.272l-10.794 5.564 4.05 7.709zm525.649-161.86l-2.44-5.736-8.98.98 2.43 5.736z"/><path fill="#177dff" d="M1374.46 175.696l3.6-6.859-19.92-11.16-3.6 6.859z"/><path fill="#4dd67b" d="M1384.95 279.276l-2.52-5.672-8.1 1.5 2.52 5.673z"/><path fill="#177dff" d="M1359.66 197.514l-1.65-8.43-8.47 1.946 1.64 8.43z"/><path fill="#f4dc73" d="M582.002 235.911l-3.681-8.594-13.14 1.43 3.68 8.594zM683.134 61.632l6.978-2.58-9.562-17.711-6.978 2.58z"/><path fill="#d64d5b" d="M539.593 289.332l-7.836.277 2.18 8.656 7.836-.277z"/><path fill="#4dd67b" d="M614.047 236.332l9.448 2.49-5.45-15.922-9.448-2.49z"/><path fill="#f4dc73" d="M1376.73 243.599l5.62-3.722-5.77-9.449-5.63 3.721z"/><path fill="#d64d5b" d="M149.533 68.25l-5.898-3.717-6.608 9.899 5.898 3.717z"/><path fill="#4dd67b" d="M888.421 157.196l-2.628-6.307-16.401 5.024 2.628 6.306z"/><path fill="#177dff" d="M1367.99 178.225l-4.87-5.043-5.85 5.445 4.87 5.043z"/><path fill="#4dd67b" d="M1032.66 127.186l-3.46-8.577-20.54 3.014 3.46 8.576zM318.872 290.993l8.902-3.515-8.009-24.091-8.902 3.515z"/><path fill="#177dff" d="M1140.11 115.028l-4.79-7.489-20.2 14.854 4.79 7.489z"/><path fill="#4dd67b" d="M596.89 320.228l.64-8.795-23.761-3.947-.64 8.795z"/><path fill="#177dff" d="M29.085 144.407l-1.018-6.859-7.928 2.598 1.017 6.859z"/><path fill="#f4dc73" d="M359.964 59.343l-1.125-5.768-10.638.756 1.126 5.768z"/><path fill="#4dd67b" d="M586.107 172.714l-3.134-4.524-8.035 4.61 3.135 4.525z"/><path fill="#177dff" d="M394.455 117.103l-5.79-.201 3.196 15.869 5.79.201z"/><path fill="#d64d5b" d="M57.973 245.863l-3.706-6.313-12.931 7.348 3.706 6.313z"/><path fill="#177dff" d="M128.795 219.413l6.244-.57-3.011-8.692-6.244.571z"/><path fill="#4dd67b" d="M687.847 317.022l-3.923-4.287-5.786 5.307 3.924 4.287z"/><path fill="#f4dc73" d="M923.063 213.311l-4.3-3.189-6.068 9.002 4.3 3.189z"/><path fill="#d64d5b" d="M779.135 225.575l-4.791-2.434-5.452 8.483 4.791 2.434z"/><path fill="#4dd67b" d="M186.939 212.758l-2.661-8.018-10.016-.178 2.661 8.018zm949.411 70.986l8.56-.907-1.27-12.219-8.56.906zm-49.57 34.002l-1.86-4.981-8.92 1.465 1.85 4.981z"/><path fill="#177dff" d="M1335.23 75.377l-3.58-2.854-6.15 7.252 3.59 2.854z"/><path fill="#f4dc73" d="M1436.79 294.135l3.42-5.638-11.56-8.217-3.42 5.637zm-821.498-21.493l-5.125-.351 1.387 6.468 5.124.351zm-494.11-30.201l3.82-3.509-10.592-11.031-3.821 3.509zm659.97-127.46l6.043-6.392-19.452-18.455-6.043 6.392zM886.9 204.403l6.754-7.081-14-13.258-6.755 7.081z"/><path fill="#d64d5b" d="M746.119 246.875l-5.825-5.47-11.85 13.791 5.825 5.47zm605.351-67.787l4.78-.971-3.44-10.706-4.77.971z"/><path fill="#177dff" d="M472.689 133.012l-4.629-2.916-6.301 9.47 4.629 2.916zM85.14 37.222l7.835-.694-2.08-20.194-7.836.694z"/><path fill="#f4dc73" d="M216.02 315.24l5.8-2.749-5.041-10.481-5.801 2.749z"/><path fill="#4dd67b" d="M249.633 100.822l5.957-2.535-6.745-15.929-5.956 2.536z"/><path fill="#d64d5b" d="M1179.66 117.859l-9.03-3.665-2.41 18.996 9.04 3.665z"/><path fill="#177dff" d="M915.614 65.724L922.282 58l-8.725-7.073-6.668 7.725zm-646.539 109.5l.592-5.105-15.46-6.786-.592 5.105z"/><path fill="#4dd67b" d="M155.776 242.722l3.921-2.799-11.347-11.994-3.922 2.799z"/><path fill="#f4dc73" d="M201.703 88.607l-1.634-5.114-14.588-3.46 1.634 5.113zM107.69 299.966l-6.458-3.05-5.666 11.775 6.457 3.05zm1026.84-152.329l-2.14-4.673-5.88 2.428 2.14 4.673z"/><path fill="#177dff" d="M659.471 268.619l5.279-1.316-6.169-14.959-5.279 1.315z"/><path fill="#4dd67b" d="M98.764 92.017l-5.887-2.814-2.05 8.882 5.888 2.814z"/><path fill="#d64d5b" d="M1394.34 235.712l8.56-4.103-8.5-18.767-8.56 4.103zM578.862 101.367l-3.052-5.972-16.361 10.453 3.052 5.972z"/><path fill="#f4dc73" d="M903.562 175.133l8.599-.755-1.156-16.537-8.599.755z"/><path fill="#d64d5b" d="M1184.92 279.65l-5.63-3.059-6.97 12.785 5.64 3.058z"/><path fill="#4dd67b" d="M1026.46 44.892l-8.01-6.537-7.06 9.374 8.01 6.537z"/><path fill="#f4dc73" d="M1410.29 106.724l7.5-1.103-4.75-10.696-7.51 1.102z"/><path fill="#4dd67b" d="M940.145 221.079l-5.224-6.341-19.728 17.335 5.224 6.341z"/></g><defs><clipPath id="a"><path fill="#fff" d="M0 0h1440v326H0z"/></clipPath></defs></svg>